<svg xmlns="http://www.w3.org/2000/svg" viewBox="0 0 220 48" role="img" aria-label="NeoRise logo">
  <rect width="220" height="48" rx="8" fill="#0f172a"/>
  <path d="M20 34V14h6.5l10 13.5V14H43v20h-6.2L26.5 20.2V34H20z" fill="#ffffff"/>
  <path d="M56 34V14h17v4.8H62.5v3h9.7v4.6h-9.7v3h10.7V34H56z" fill="#ffffff"/>
  <path d="M85 34V14h10.2c4.9 0 8 2.8 8 7.1 0 2.8-1.4 4.9-3.9 6.1L104 34h-7.1l-4-5.8h-1.4V34H85zm6.5-10.6h3.1c1.4 0 2.2-.8 2.2-2s-.8-2-2.2-2h-3.1v4z" fill="#ffffff"/>
  <path d="M112 34V14h6.6v20H112z" fill="#22c55e"/>
  <path d="M130 34V14h17v4.8h-10.5v3h9.7v4.6h-9.7v3h10.7V34H130z" fill="#ffffff"/>
  <circle cx="186" cy="24" r="10" fill="#22c55e"/>
  <path d="M182 29v-9h3l4 5.4V20h2.5v9H189l-4-5.2V29h-3z" fill="#0f172a"/>
</svg>
